<?xml version="1.0" encoding="utf-8"?>
<!-- Generator: Adobe Illustrator 16.0.0, SVG Export Plug-In . SVG Version: 6.00 Build 0)  -->
<!DOCTYPE svg PUBLIC "-//W3C//DTD SVG 1.1//EN" "http://www.w3.org/Graphics/SVG/1.1/DTD/svg11.dtd">
<svg version="1.1" xmlns="http://www.w3.org/2000/svg" xmlns:xlink="http://www.w3.org/1999/xlink" x="0px" y="0px" width="860px"
	 height="550px" viewBox="0 0 860 550" enable-background="new 0 0 860 550" xml:space="preserve">
<g id="Layer_2">
</g>
<g id="Layer_1">
	<g>
		<defs>
			<rect id="SVGID_1_" x="-1483.394" y="0.563" width="905.289" height="586"/>
		</defs>
		<clipPath id="SVGID_2_">
			<use xlink:href="#SVGID_1_"  display="none" overflow="visible"/>
		</clipPath>
		<g clip-path="url(#SVGID_2_)">
			<path id="path2483_2_" fill="#D98F90" stroke="#FFFFFF" stroke-miterlimit="10" d="M304.266,315.139
				c-0.291,0.358-0.577,0.26-0.94,0.416c-0.567,0.243-1.14,0.797-1.679,1.106c-0.303,0.174-0.663-0.076-0.948,0.133
				c-0.253,0.186-0.681,0.249-0.995,0.263c-0.576,0.025-1.373-0.184-1.945-0.014c-0.389,0.115-0.252,0.346-0.514,0.592
				c-0.282,0.268-0.814,0.191-1.169,0.157c-0.325-0.031-0.702-0.049-0.99,0.155c-0.405,0.287-0.356,0.724-0.559,1.111
				c-0.399,0.77-1.358,0.675-1.798,1.303c-0.217,0.31-0.162,0.746-0.424,1.057c-0.23,0.275-0.621,0.34-0.912,0.533l0.041,0.115
				c-0.314,0.27-0.792,1.311-1.262,1.045c-0.122,0.173-0.327,0.723-0.343,0.949c-0.009,0.137,0.001,0.351,0.079,0.465
				c0.196,0.286,0,0.244,0.01,0.516c0.031,0.775-0.155,1.468,0.08,2.262c0.227,0.763,0.462,1.139,1.199,0.873
				c0.338-0.121,0.631-0.206,1.023-0.241c0.425-0.038-0.593,0.177-1.484,0.538c0.232,0.388,0.123,0.932,0.266,1.367
				c0.149,0.457,0.326,0.896,0.359,1.377c0.035,0.519,0.17,1.006,0.426,1.454c0.289,0.504,0.111,0.533,0.723,0.636l-0.168,0.104
				c-0.441-0.08-0.488-0.404-0.701-0.715c-0.098,0.292,0.09,0.542,0.055,0.831c-0.045,0.367,0.178,0.388,0.232,0.724
				c0.088,0.539-0.023,1.049-0.092,1.591c-0.127,0.983,0.623,1.712,0.86,2.634c0.06,0.233-0.044,0.474,0.009,0.696
				c0.06,0.254,0.234,0.598,0.248,0.846c0.035,0.62,0.061,1.153,0.229,1.753c0.072,0.265,0.008,0.421,0.136,0.706
				c0.101,0.223,0.291,0.357,0.396,0.609c0.082,0.201,0.145,0.427,0.286,0.594c0.204,0.241,0.419,0.058,0.698,0.054
				c0.018,0.036,0.036,0.072,0.057,0.107c-0.074,0.303-0.343,0.445-0.577,0.174c-0.013,0.497,0.286,0.983,0.261,1.469
				c-0.033,0.623,0.123,1.28,0.234,1.896c0.079,0.439-0.05,1.188-0.122,1.644c-0.077,0.492-0.157,1.111-0.312,1.589
				c-0.407,1.253-0.502,2.525-0.842,3.785c-0.32,1.188-0.75,2.386-0.966,3.593c0.831-0.097,0.52-1.07,0.7-1.553
				c0.113-0.306,0.359-0.438,0.438-0.768c0.077-0.32,0.046-0.688-0.019-1.006c0.703-0.46,0.754-1.904,0.922-2.678
				c0.201,0.29-0.135,1.207-0.232,1.543l-1.274,4.627l-0.204,0.305l0.061,0.066c-0.046,0.168-0.063,0.34-0.047,0.514
				c-0.247,0.157-0.326,0.842-0.326,0.842c0.061-0.582,0.053-1.234,0.303-1.775c-0.408-0.119-1.443,5.275-1.639,6.406
				c-0.371,2.147-1.182,4.409-2.059,6.391c0.211,0.497,0.766,0.59,0.991,1.064h0.004c0.269,0.088,0.593-0.062,0.845,0.023
				c0.309,0.104,0.658,0.64,0.809,0.918h0.004c0.271,0.084,0.417-0.479,0.639-0.641l0.01,0.018
				c-0.321,0.594-0.447,1.032-1.043,0.402c0.032-0.122-0.014-0.224-0.123-0.303c-0.253-0.108-0.508-0.223-0.789-0.246l-0.016,0.145
				c0.119,0.179,0.249,0.355,0.412,0.496c-0.332,0.103-0.453-0.366-0.574-0.611h-0.008c-0.054-0.037-0.118-0.04-0.174-0.004
				c-0.018,0.96-0.408,1.809-0.676,2.734l0.018,0.004c-0.573,2.021-1.489,3.944-2.071,5.943c-0.319,1.097-0.794,2.164-1.183,3.232
				c-0.174,0.478-0.215,1.131-0.34,1.65c-0.114,0.477-0.396,1.122-0.324,1.607c0.652,0.161-0.949,2.256-1.313,2.271l-0.01,0.234
				l0.15,0.135c-0.045,0.109-0.125,0.182-0.24,0.215l-0.103-0.219c-0.614,0.046-1.673,1.68-1.705,2.229
				c0.425,0.07,0.396,0.428,0.647,0.664l0.084-0.092c0.133,0.026,0.193,0.108,0.157,0.234l-0.194-0.01
				c0.022,0.134,0.035,0.298,0.033,0.43l-0.117,0.021l-0.068-0.227c-0.193-0.017-0.342,0.054-0.447,0.213l-0.059-0.008l-0.031-0.07
				l0.104-0.189c-0.041-0.055-0.05-0.113-0.028-0.178l0.151-0.053c-0.127-0.155-0.211-0.346-0.217-0.547
				c-0.107-0.021-0.172-0.086-0.191-0.193c-0.231,0.427-1.672,1.792-2.223,1.5c-0.104,1.066-1.176-0.52-1.455,0.43
				c0.383,0.435,1.238-0.118,0.941,0.906c1.148,1.047,0.42,3.444-0.129,4.697c-0.167,0.381-0.342,0.792-0.529,1.158
				c-0.168,0.329-0.475,0.674-0.557,1.046c-0.064,0.285,0.123,0.794,0.091,1.136c-0.04,0.421-0.161,0.8-0.046,1.211
				c0.521,1.864-0.893,3.392-1.455,5.08c-0.123,0.371-0.326,0.834-0.063,1.198c0.254,0.353,0.481,0.231,0.301,0.802
				c-0.143,0.451-0.338,0.744,0.169,0.951c0.329,0.135,0.647-0.028,0.909,0.25c0.346-0.342,0.396-0.429,0.906-0.26
				c0.239,0.079,0.465,0.221,0.657,0.38c0.208,0.173,0.452,0.159,0.696,0.253c0.227-0.354,0.973-0.69,1.391-0.643
				c0.439,0.051,0.849,0.18,1.299,0.156c0.332-0.018,0.66-0.178,0.939-0.266c1.926-0.607,0.97-3.035,2.078-4.379h0.004
				c0.274-0.275,0.604-0.508,0.746-0.91c0.168-0.478,0.174-0.77,0.479-1.217c0.245-0.359,0.604-0.582,0.848-0.912
				c0.326-0.441,0.521-0.254,0.299,0.068c-0.141,0.204-0.438,0.221-0.615,0.396c-0.306,0.306-0.613,1.309-0.533,1.721
				c0.051,0.261,0.449,0.355,0.365,0.63c-0.113,0.366-0.166,0.555,0.208,0.731l-0.052,0.107c0.023,0.029,0.049,0.059,0.074,0.086
				c0.172-0.068,0.732,0.462,0.808,0.896c0.063,0.37,0.312,0.842,0.147,1.201c-0.249-0.12-0.51-0.089-0.744,0.042
				c-0.367,0.204-0.531,0.374-0.994,0.506c-0.111,0.032-0.646,0.444-0.758,0.569c-0.195,0.22-0.346,0.53-0.135,0.805
				c0.313-0.265,0.45-0.455,0.951-0.35c0.355,0.075,0.822-0.011,1.027,0.369l-0.066,0.068c-0.107-0.111-0.253-0.19-0.392-0.207
				c0,0-0.73-0.026-0.808,0.453c0.146,0.192-0.243,0.156-0.469,0.367l-0.179-0.434l-0.093-0.029
				c-0.084,0.204-0.598,0.47-0.709,0.494c-0.007,0.371,0.131,0.922,0.004,0.652c-0.211-0.452-0.54,0.041-0.494,0.365l-0.088-0.008
				c-0.109-0.367-0.367-0.419-0.67-0.484c0.047-0.069,0.089-0.142,0.128-0.215c0.247,0.021,0.44,0.263,0.675,0.09
				c-0.19-0.136-0.429-0.212-0.65-0.304c-0.145-0.061-0.268-0.3-0.416-0.399l0.222-0.328l-0.052-0.102
				c-0.363,0.04-0.652,0.318-1.08,0.318c-0.432,0-1.258,0.493-1.521,0.158l-0.044,0.066c0.618,1.195,1.554,2.047,1.772,3.456
				c0.092,0.593,0.117,1.326-0.057,1.899c-0.143,0.465-0.75,1.044-0.656,1.527c0.745,0.253,1.398-0.489,2.119-0.32
				c0.127-0.534,0.829-0.087,1.186-0.088c0.283-0.221,0.694-0.193,0.928-0.365c0.373-0.275,0.58-0.543,0.92-0.845
				c0.267-0.236,0.729,0.014,0.959-0.238c0.295-0.319,0.283-0.559,0.656-0.824c0.654-0.464,1.595,0.704,2.049,0.964
				c0.324,0.186,1.16-0.832,0.84-0.984c-0.082,0.102,0.689,1.365,0.689,1.365s0.775,1.33,0.542,1.281
				c-0.194-0.041-1.253-0.586-1.388-0.547l-0.043,0.197c0,0-0.398,0.436-0.452,0.764c-0.431-0.117-0.521-0.397,0.052,0.974
				c0.429,1.025,0.576,2.563,0.527,3.667c-0.065,1.488-0.443,2.861-0.893,4.277c-0.213,0.667-0.482,1.315-0.732,1.97
				c-0.227,0.591-0.549,0.873-0.938,1.306c0.109,0.242,0.287,0.095,0.502,0.18c0.328,0.13,0.66,0.386,1.01,0.533
				c0.558,0.234,0.501,1.497,0.53,1.996c0.045,0.771-0.034,1.434-0.193,2.194c-0.048,0.229-0.173,0.729-0.097,0.94
				c0.087,0.241,0.355,0.342,0.422,0.662c0.266-0.143,0.52-0.364,0.828-0.221c0.08,0.18,0.118,0.382,0.113,0.578
				c0.096-0.002,0.191,0.028,0.256,0.088l-0.146,0.395c0.113,0.045,0.207,0.109,0.283,0.205l-0.064,0.043
				c-0.281-0.079-0.381-0.272-0.205-0.506l-0.027-0.057c-0.364,0.029-0.301-0.478-0.35-0.719c-0.487,0.057-0.885,0.343-0.792,0.844
				c0.078,0.421-0.208,1.006-0.28,1.431c-0.053,0.304-0.27,1.062-0.174,1.323c0.08,0.224,0.22,0.4,0.328,0.611
				c0.127,0.248,0.082,0.38,0.145,0.603c0.221,0.807,0.025,2.143-0.188,2.959c-0.283,1.084-0.703,2.502-1.547,3.304
				c0.045,0.225,0.006,0.452,0.051,0.662l0.076-0.018c0.185,0.608-0.002,2.498-0.958,2.516l-0.048,0.074
				c0.422,0.826-0.066,2.014-0.713,2.621c-0.361,0.34-0.238,0.8-0.603,1.153c-0.133,0.129-0.27,0.647-0.394,0.862l0.033,0.057
				c0.084-0.003,0.156,0.022,0.217,0.078l0.039-0.176c0.595-0.17,0.568,0.496,0.721,0.816l0.072-0.018l0.047-0.229l0.254-0.021
				c0.068-0.097,0.089-0.209,0.066-0.328c0.359-0.235,0.857-0.826,1.299-0.74c0.195,0.038,0.242-0.237,0.393-0.336
				c0.277-0.181,0.652-0.194,0.97-0.258c0.274-0.056,0.257,0.146,0.521-0.065c0.174-0.14,0.558-0.162,0.78-0.273
				c0.464-0.232,1.189-0.174,1.669-0.044c-0.15-0.571,0.347-1.025,0.896-1.059l-0.015-0.039c-0.052-0.011-0.104-0.021-0.156-0.031
				c0.125-0.146,0.179-0.308,0.278-0.457c0.297,0.741,0.516-0.303,0.719-0.344l0.033,0.1c-0.16,0.136-0.219,0.35-0.176,0.555
				c-0.09,0.056-0.188,0.084-0.292,0.084l-0.021,0.057c0.566,0.208,1.021,0.163,1.649,0.197c0.013-0.375-0.011-0.58,0.228-0.906
				c0.102,0.011,0.198-0.032,0.273-0.111l0.069,0.102c-0.259,0.287-0.642,0.772-0.269,1.191c0.166,0.188,0.607,0.058,0.827,0.205
				c0.279,0.188,0.642,0.261,0.972,0.275c0.65,0.029,1.117-0.559,1.752-0.282c0.297,0.13,0.523,0.317,0.771,0.525
				c0.307,0.259,0.495,0.058,0.805-0.03c1.156-0.327,2.26-0.292,3.363,0.198c1.29,0.574,2.258,1.614,3.396,2.409l0.053-0.045
				c-0.152-0.258-0.371-0.456-0.577-0.672c0.305-0.103,0.585,0.164,0.814-0.176l0.064,0.012c0.044,0.503,0.424,0.192,0.686,0.413
				c0.35,0.297,0.985,0.812,1.144,0.001c-0.106-0.08-0.206-0.169-0.296-0.266l0.031-0.049c0.235-0.03,0.408-0.247,0.656-0.33
				c0.318-0.107,0.654-0.116,0.947-0.297l0.18,0.094c-0.426,0.007-0.518,0.299-0.091,0.34c0.399,0.038,0.899-0.474,1.206-0.699
				c-0.084-0.422,0.573-0.425,0.891-0.627c0.463-0.296,1.324-0.659,1.56-1.203l-0.202,0.033l-0.063-0.061
				c0.259-0.114,0.562-0.467,0.786-0.652c0.222-0.185,0.537-0.403,0.786-0.498l0.046,0.059c-0.287,0.222-0.73,0.424-0.959,0.695
				l0.031,0.07c0.929-0.55,1.924-1.312,3.041-1.355c0.268-0.01,1.152,0.351,1.191-0.029c0.031-0.305-0.287-0.822-0.301-1.184
				c-0.022-0.667-0.539-0.525-0.194-1.278c0.091-0.197-0.222-0.87-0.333-1.101c-0.225-0.468,0.184-1.063,0.145-1.528
				c-0.042-0.502-0.591-0.839-0.588-1.21c0.109-0.045,0.213-0.073,0.336-0.092l0.049-0.113c-0.217-0.327-0.206-0.573-0.285-0.943
				c-0.028-0.128-0.158-0.243-0.174-0.373c-0.023-0.181,0.111-0.317,0.043-0.502c-0.113-0.308-0.614-0.301-0.571-0.683
				c0.036-0.316-0.228-0.295-0.487-0.39c-0.07-0.293-0.127-0.59-0.189-0.885c0.131-0.009,0.264-0.016,0.396-0.021l0.063-0.086
				c-0.054-0.052-0.131-0.087-0.209-0.098c0.047-0.196,0.166-0.37,0.34-0.473c-0.029-0.241,0.023-0.498,0.051-0.746
				c0.043,0.05,0.097,0.069,0.162,0.061c0.217-0.751,0.795-1.137,0.846-2.004c0.036-0.619,0.336-1.805,0.77-2.23
				c0.215-0.211,0.646-0.364,0.906-0.633c0.271-0.279,0.592-0.477,0.865-0.746c0.275-0.271,1.337-1.66,0.947-1.988
				c0.229-0.48,0.34-0.995,0.568-1.463c0.285-0.584-0.428-0.973,0.402-1.34c0.23-0.103,0.969-0.521,1.132-0.364
				c0.321,0.307,1.128,0.275,1.44-0.067c-0.166-0.514,0.168-1.078,0.766-0.846c0.342,0.133,0.498,0.536,0.922,0.499
				c0.324-0.029,0.828-0.068,1-0.358l-0.18-0.373c0.231-0.347,0.028-0.533,0.096-0.865c0.093-0.462,0.539-0.835,0.729-1.264
				c0.211-0.476,0.709-2.056,0.502-2.541c-0.314-0.085-0.412,0.254-0.678,0.249c-0.272-0.006-0.527,0.105-0.797,0.106
				c0.109,0.605-0.646,0.565-1.014,0.738c-0.172-0.18-0.34-0.187-0.41,0.068c-0.563,0.016-1.11-1.116-1.309-1.551
				c-0.156-0.342-0.082-0.775-0.26-1.113c-0.158-0.3-0.49-0.489-0.691-0.76c-0.521-0.698-0.996-1.403-1.535-2.098
				c-0.429-0.551-0.824-1.783-1.723-1.563c0.002-0.405,0.771-0.867,0.695-1.346c-0.121,0.096-0.264,0.141-0.4,0.109
				c-0.096-0.692,0.398-1.479,0.682-2.044c0.163-0.326,0.367-0.664,0.512-0.995c0.102-0.235,0.416-0.806,0.385-1.018
				c-0.965-0.136-0.369-1.807-0.275-2.455c0.057-0.388,0.726-0.596,1.018-0.753c0.125-0.067,0.236-0.182,0.305-0.306
				c0.203-0.369,0.33-0.271,0.619-0.525c0.307-0.271,0.465-0.673,0.781-0.976c0.275-0.264,0.797,0.094,0.945-0.349
				c0.109-0.324,0.234-0.84,0.606-0.963c0.476-0.157,0.64-0.395,0.38-0.854c-0.347-0.61-0.115-0.429,0.232-0.866
				c0.252-0.317,0.349-0.808,0.59-1.166c0.258-0.383,0.494-0.768,0.723-1.175c0.084-0.148,0.285-0.372,0.266-0.556
				c-0.021-0.193-0.23-0.253-0.264-0.412c-0.105-0.493,0.167-0.568-0.236-1.041c-0.34-0.398-0.798-0.707-1.213-1.018
				c-0.664-0.496-1.704,1.189-2.342,0.063c-0.241-0.428,0.689-1.566-0.099-1.711c-0.646-0.118-1.48-0.137-1.813-0.807
				c-0.154-0.312-0.234-0.682-0.211-1.033c0.018-0.262,0.301-0.835,0.221-1.035c-0.244-0.614-1.147-0.955-1.503-1.524
				c-0.228-0.363-0.726-1.15-0.558-1.552c0.11-0.266,0.497-0.324,0.6-0.648c0.04-0.128,0.15-1,0.125-1.129
				c-0.052-0.248-1.07-0.751-1.295-0.741c-0.775,0.033-0.604-1.102-0.961-1.519c-0.29,0.081-0.68-0.027-0.798-0.334
				c-0.241-0.627-0.472-0.651-0.962-1.027c-0.422-0.322-1.236-1.79-0.742-2.15c0.684-0.5,1.911,0.174,2.625,0.271
				c1.011,0.138,1.776,0.091,2.723-0.281c0.74-0.29,1.632-0.008,2.388,0.12c0.363,0.062,0.704-0.176,1.067-0.161
				c0.358,0.015,0.703,0.346,1.059,0.154c0.402-0.215,0.928-0.222,1.088-0.698c0.121-0.359,0.236-0.822,0.295-1.179
				c0.062-0.382,0.191-0.699,0.27-1.082c0.082-0.408-0.311-0.916-0.016-1.22c0.254-0.263,0.748-0.586,1.072-0.726l0.029-0.314
				c0.465-0.258,0.547-0.679,0.586-1.162c0.018-0.203-0.016-0.358-0.053-0.563c-0.064-0.36,0.109-0.361,0.227-0.655
				c0.252-0.641-0.01-1.777,0.609-2.311l-0.012-0.008l0.006-0.006c-0.182-0.134-0.266-0.372-0.344-0.557
				c0.034-0.353-0.429-0.47-0.283-0.822h-0.01l0.004-0.014c-0.078-0.005-0.152-0.026-0.221-0.063v-0.004
				c-0.262-0.202-0.488-0.702-0.547-1.033c-0.279-0.201-0.88-0.727-1.309-0.412c-0.418-0.356-0.4-0.684-0.398-1.172l-0.006-0.002
				c-0.332-0.499-0.131-1.176,0.059-1.688c0.125-0.341,0.41-0.508,0.755-0.537c0.349-0.029,0.377-0.26,0.581-0.472l-0.008-0.014
				c0.637-0.036,1.283-0.012,1.854-0.332c0.07-0.285-0.126-0.697,0.106-0.914c0.214-0.199,0.474-0.459,0.729-0.605
				c0.272-0.156,0.609-0.125,0.645-0.47c0.043-0.414,0.121-0.577,0.277-0.911c-0.928-0.369-1.717-1.946-1.168-2.863
				c0.258-0.434,0.779-0.961,0.855-1.451c0.123-0.8-0.575-0.923-1.01-1.275c0.283-0.581,0.701-1.174,0.877-1.797
				c0.189-0.676-0.143-1.586-0.24-2.288c-0.041-0.294-0.174-0.539-0.291-0.789c-0.15-0.318-0.052-0.508-0.037-0.845
				c0.031-0.707,0.153-1.389,0.125-2.063c0.15,0.001,0.294-0.043,0.412-0.129c-0.023-0.757-0.209-0.795-0.666-1.189
				c-0.508-0.438-0.223-1.237-0.586-1.818c-0.419-0.669-1.562-1.39-1.576-2.264c0.26-0.188,0.527-0.13,0.807-0.037
				c0.498,0.167,1.131,0.139,1.609-0.12c0.252-0.137,0.684-0.577,0.791-0.842c0.126-0.31,0.684-1.021,0.497-1.295
				c-0.297-0.435-0.236-0.423,0.181-0.778c0.363-0.311,0.873-0.664,1.054-1.128c0.261-0.67,0.885-1.866,1.737-1.806
				c0.316,0.022,0.578,0.302,0.936,0.205c0.355-0.097,0.518-0.521,0.908-0.61c0.555-0.126,0.786-0.43,1.168-0.835
				c0.307-0.324,0.803-0.425,1.068-0.771c0.109-0.143,0.145-0.381,0.25-0.539c0.145-0.215,0.283-0.265,0.445-0.451
				c0.496-0.569-0.01-0.342,0.092-0.92c0.174-0.999,0.854,0.349,1.285-0.3c0.563-0.846,0.566-1.889,1.182-2.724
				c0.131-0.178,0.434-0.381,0.456-0.601c0.042-0.406,0.427-0.535,0.644-0.867c0.283-0.434,0.35-0.912,0.912-1.116
				c-0.063-0.304-0.262-0.527-0.543-0.638c-0.325-0.127-0.429-0.344-0.617-0.636c-0.393-0.604-0.756-0.981-1.45-1.171
				c-0.255-0.07-0.425-0.272-0.649-0.354c-0.271-0.1-0.434,0.004-0.711-0.016c-0.506-0.035-1.01-0.265-1.494-0.305
				c-0.376,0.591-0.594,0.624-1.266,0.84c-0.164-0.385-0.828-0.934-1.236-0.969c0.219-0.521,0.252-1.273-0.311-1.604
				c0.016-0.277,0.359-0.401,0.408-0.709c0.063-0.388,0.201-0.734,0.265-1.109c0.081-0.476,0.181-1.26,0.431-1.684
				c-0.199-0.305-0.607-0.335-0.934-0.412c-0.08-0.429,0.448-0.922,0.41-1.375c-0.023-0.298-0.519-1.063-0.816-1.068
				c0.08,0.907-1.783,0.978-2.454,0.883c-0.605-0.085-0.973-0.041-1.179-0.682c-0.18-0.561-0.473-0.872-1.09-0.75
				c-0.28,0.565-0.068,1.57-1.111,1.188c-0.414,0.292-0.826,0.131-1.287,0.143c-0.563,0.015-0.703-0.538-1.006-0.879
				c-0.492-0.053-0.518,0.529-0.908,0.639c-0.148,0.041-1.098,0.067-1.24,0c-0.359-0.17-0.394-0.698-0.813-0.893
				c-0.317-0.147-1.023-0.338-1.357-0.197c-0.227,0.087-0.4,0.271-0.477,0.506h-0.004c-0.137,0.289,0.119,0.479-0.02,0.779h-0.004
				c0.08,0.818,0.242,0.775-0.145,1.588c-0.256,0.536-1.255,0.586-1.676,0.953c-0.416,0.363-1.326,0.412-1.841,0.256
				c-0.688-0.21-0.778,0.937-1.47,0.99c-0.031-0.184-0.016-0.364,0.047-0.537c-0.288-0.277-0.533-0.555-0.668-0.936
				c-0.396,0.035-0.559-0.066-0.891-0.273l-0.279,0.193l0.107,0.266c-0.383,0.755-1.651,0.799-2.285,0.441
				c0.063-0.503,0.349-0.832,0.729-1.148c-0.254,0.054-0.455,0.033-0.713-0.03c-0.231-0.057-0.446,0.177-0.7,0.108
				c-0.476-0.129-0.675-0.828-1.216-0.752c-0.279,0.039-0.381,0.294-0.712,0.289c-0.226-0.004-0.38-0.079-0.604-0.014
				c-0.2,0.059-0.354,0.263-0.557,0.332c-0.327,0.111-0.66,0.149-1.005,0.178c-0.019,0.605-0.453,0.549-0.911,0.709
				c-0.622-0.418,0.184-1.459-0.086-2.064c-0.184-0.039-0.412-0.064-0.6,0.018c-0.301,0.743,0.16,1.341-0.925,1.551
				c-0.552,0.106-0.424-0.006-0.748,0.49c-0.177,0.271-0.415,0.81-0.817,0.676c-0.242,0.259-0.928,0.366-0.92,0.73
				c-0.422,0.11-1.57-0.077-1.832-0.449c-0.197-0.28-0.141-1.146-0.242-1.511c-0.098-0.354-0.383-0.291-0.701-0.304
				c-0.246-0.411-0.363-0.67-0.318-1.094c0.451-0.401,0.711-1.104,1.055-1.598c0.328-0.469,1.176-0.903,1.688-1.178
				c0.089-0.501,0.184-1.327-0.377-1.618c-0.716-0.371-1.012,0.266-1.641,0.173C304.75,317.026,304.697,315.114,304.266,315.139z"/>
		</g>
	</g>
</g>
</svg>
